<svg width="96" height="96" xmlns="http://www.w3.org/2000/svg" xmlns:xlink="http://www.w3.org/1999/xlink" xml:space="preserve" overflow="hidden"><g transform="translate(-592 -312)"><path d="M680 317 660.2 317C658.543 317 657.2 318.343 657.2 320 657.2 321.657 658.543 323 660.2 323L672.76 323 603 392.76 603 380.2C603 378.543 601.657 377.2 600 377.2 598.343 377.2 597 378.543 597 380.2L597 400C597 401.657 598.343 403 600 403L619.8 403C621.457 403 622.8 401.657 622.8 400 622.8 398.343 621.457 397 619.8 397L607.24 397 677 327.24 677 339.8C677 341.457 678.343 342.8 680 342.8 681.657 342.8 683 341.457 683 339.8L683 320C683 318.343 681.657 317 680 317Z" fill="#106A5D"/></g></svg>